<!-- icon666.com - MILLIONS vector ICONS FREE --><svg version="1.1" id="Capa_1" xmlns="http://www.w3.org/2000/svg" xmlns:xlink="http://www.w3.org/1999/xlink" x="0px" y="0px" viewBox="0 0 512 512" style="enable-background:new 0 0 512 512;" xml:space="preserve"><path style="fill:#339EFF;" d="M501.76,256c0-22.364-17.94-40.489-40.223-40.878c20.419-8.909,30.065-32.502,21.504-53.166 c-8.561-20.685-32.051-30.536-52.797-22.405c15.462-16.015,15.36-41.513-0.471-57.324c-15.811-15.831-41.308-15.954-57.344-0.492 c8.151-20.726-1.72-44.237-22.385-52.797s-44.257,1.106-53.166,21.524C296.489,28.18,278.364,10.24,256,10.24 s-40.489,17.94-40.878,40.223c-8.909-20.419-32.502-30.085-53.166-21.524S131.42,61.01,139.571,81.736 c-16.036-15.462-41.533-15.34-57.344,0.492c-15.831,15.811-15.933,41.308-0.471,57.324c-20.746-8.131-44.237,1.72-52.797,22.405 c-8.561,20.664,1.085,44.257,21.504,53.166C28.18,215.511,10.24,233.636,10.24,256s17.94,40.489,40.223,40.878 c-20.419,8.909-30.065,32.502-21.504,53.166c8.561,20.685,32.051,30.536,52.797,22.405c-15.462,16.015-15.36,41.513,0.471,57.324 c15.811,15.831,41.308,15.954,57.344,0.492c-8.151,20.726,1.72,44.237,22.385,52.797c20.664,8.561,44.257-1.106,53.166-21.525 c0.389,22.282,18.514,40.223,40.878,40.223s40.489-17.94,40.878-40.223c8.909,20.419,32.502,30.085,53.166,21.525 c20.664-8.561,30.536-32.072,22.385-52.797c16.036,15.462,41.533,15.34,57.344-0.492c15.831-15.811,15.933-41.308,0.471-57.323 c20.746,8.131,44.237-1.72,52.797-22.405c8.561-20.664-1.085-44.257-21.504-53.166C483.82,296.489,501.76,278.364,501.76,256"></path><path id="SVGCleanerId_0" d="M256,512c-19.62,0-36.844-11.325-45.404-27.75c-14.193,11.919-34.488,15.77-52.552,8.274 c-18.125-7.496-29.716-24.556-31.314-43.028c-17.654,5.591-37.847,1.393-51.732-12.472s-18.063-34.058-12.472-51.733 c-18.473-1.618-35.512-13.21-43.028-31.314c-7.516-18.125-3.645-38.359,8.274-52.552C11.325,292.844,0,275.62,0,256 s11.325-36.844,27.771-45.404c-11.919-14.213-15.77-34.447-8.274-52.552s24.535-29.696,43.008-31.314 c-5.591-17.695-1.393-37.888,12.493-51.753s34.038-18.043,51.732-12.472c1.597-18.473,13.189-35.533,31.314-43.028 c18.084-7.537,38.359-3.645,52.552,8.294C219.156,11.305,236.38,0,256,0s36.844,11.325,45.404,27.771 c14.193-11.919,34.447-15.79,52.552-8.294s29.696,24.556,31.314,43.028c17.674-5.591,37.868-1.393,51.733,12.493 c13.885,13.865,18.063,34.058,12.452,51.732c18.473,1.618,35.512,13.21,43.028,31.334c7.496,18.104,3.645,38.339-8.274,52.552 C500.675,219.156,512,236.38,512,256s-11.325,36.844-27.771,45.404c11.919,14.193,15.79,34.447,8.274,52.552 c-7.516,18.104-24.535,29.696-43.028,31.314c5.571,17.674,1.413,37.888-12.452,51.733s-34.058,17.981-51.733,12.472 c-1.618,18.452-13.21,35.512-31.314,43.028c-18.145,7.475-38.38,3.625-52.552-8.274C292.844,500.675,275.62,512,256,512z M215.122,451.297c0.655,0,1.331,0.061,2.007,0.205c4.731,0.942,8.151,5.038,8.233,9.851c0.287,16.65,14.049,30.167,30.638,30.167 s30.331-13.537,30.638-30.167c0.082-4.813,3.523-8.929,8.233-9.851c4.833-0.963,9.482,1.536,11.387,5.939 c6.636,15.258,24.535,22.528,39.854,16.159c15.34-6.369,22.856-24.125,16.773-39.608c-1.782-4.485-0.184-9.585,3.83-12.268 c4.014-2.662,9.339-2.171,12.8,1.147c11.981,11.53,31.232,11.448,43.028-0.348c11.735-11.735,11.878-31.027,0.348-42.988 c-3.359-3.482-3.85-8.806-1.167-12.8c2.662-4.014,7.844-5.571,12.268-3.85c15.626,6.144,33.116-1.188,39.608-16.773 c6.369-15.319-0.881-33.198-16.138-39.854c-4.403-1.925-6.881-6.656-5.939-11.387c0.942-4.731,5.038-8.151,9.851-8.233 c16.609-0.307,30.147-14.029,30.147-30.638s-13.517-30.351-30.167-30.638c-4.813-0.082-8.929-3.502-9.851-8.233 c-0.942-4.71,1.536-9.462,5.939-11.387c15.258-6.656,22.487-24.535,16.138-39.854c-6.431-15.585-23.88-22.979-39.608-16.794 c-4.444,1.761-9.605,0.164-12.268-3.85c-2.683-3.994-2.191-9.339,1.167-12.8c11.53-11.96,11.407-31.232-0.348-42.967 c-11.755-11.756-31.048-11.919-43.028-0.369c-3.461,3.379-8.786,3.83-12.8,1.147c-3.994-2.662-5.591-7.782-3.83-12.268 c6.083-15.483-1.434-33.239-16.773-39.588c-15.319-6.369-33.198,0.922-39.854,16.159c-1.905,4.424-6.513,7.004-11.387,5.96 c-4.69-0.963-8.131-5.059-8.212-9.871C286.351,34.017,272.609,20.48,256,20.48s-30.351,13.537-30.638,30.167 c-0.082,4.813-3.502,8.909-8.233,9.851c-4.731,1.004-9.462-1.536-11.387-5.939c-6.656-15.258-24.535-22.487-39.854-16.159 c-15.34,6.349-22.876,24.105-16.794,39.588c1.761,4.485,0.164,9.585-3.85,12.268c-4.014,2.662-9.318,2.212-12.78-1.147 c-11.981-11.551-31.252-11.407-42.988,0.369c-11.756,11.715-11.899,31.007-0.348,42.947c3.359,3.461,3.83,8.786,1.167,12.8 s-7.823,5.612-12.268,3.85c-15.708-6.144-33.157,1.188-39.608,16.794c-6.349,15.34,0.881,33.219,16.138,39.854 c4.424,1.946,6.881,6.676,5.939,11.407c-0.942,4.731-5.038,8.151-9.851,8.233C34.017,225.649,20.48,239.391,20.48,256 s13.537,30.331,30.167,30.638c4.813,0.082,8.909,3.523,9.851,8.233c0.942,4.71-1.516,9.462-5.939,11.387 c-15.237,6.656-22.487,24.535-16.138,39.854c6.328,15.319,24.084,22.917,39.608,16.773c4.485-1.741,9.585-0.143,12.268,3.85 c2.662,3.994,2.191,9.318-1.147,12.8c-11.551,11.96-11.407,31.232,0.348,42.988c11.735,11.755,31.027,11.919,42.988,0.348 c3.482-3.318,8.786-3.809,12.8-1.147c3.994,2.683,5.591,7.782,3.85,12.268c-6.083,15.483,1.434,33.239,16.773,39.608 c15.278,6.369,33.198-0.901,39.854-16.159C207.401,453.652,211.108,451.297,215.122,451.297z"></path><g><path id="SVGCleanerId_0_1_" d="M256,512c-19.62,0-36.844-11.325-45.404-27.75c-14.193,11.919-34.488,15.77-52.552,8.274 c-18.125-7.496-29.716-24.556-31.314-43.028c-17.654,5.591-37.847,1.393-51.732-12.472s-18.063-34.058-12.472-51.733 c-18.473-1.618-35.512-13.21-43.028-31.314c-7.516-18.125-3.645-38.359,8.274-52.552C11.325,292.844,0,275.62,0,256 s11.325-36.844,27.771-45.404c-11.919-14.213-15.77-34.447-8.274-52.552s24.535-29.696,43.008-31.314 c-5.591-17.695-1.393-37.888,12.493-51.753s34.038-18.043,51.732-12.472c1.597-18.473,13.189-35.533,31.314-43.028 c18.084-7.537,38.359-3.645,52.552,8.294C219.156,11.305,236.38,0,256,0s36.844,11.325,45.404,27.771 c14.193-11.919,34.447-15.79,52.552-8.294s29.696,24.556,31.314,43.028c17.674-5.591,37.868-1.393,51.733,12.493 c13.885,13.865,18.063,34.058,12.452,51.732c18.473,1.618,35.512,13.21,43.028,31.334c7.496,18.104,3.645,38.339-8.274,52.552 C500.675,219.156,512,236.38,512,256s-11.325,36.844-27.771,45.404c11.919,14.193,15.79,34.447,8.274,52.552 c-7.516,18.104-24.535,29.696-43.028,31.314c5.571,17.674,1.413,37.888-12.452,51.733s-34.058,17.981-51.733,12.472 c-1.618,18.452-13.21,35.512-31.314,43.028c-18.145,7.475-38.38,3.625-52.552-8.274C292.844,500.675,275.62,512,256,512z M215.122,451.297c0.655,0,1.331,0.061,2.007,0.205c4.731,0.942,8.151,5.038,8.233,9.851c0.287,16.65,14.049,30.167,30.638,30.167 s30.331-13.537,30.638-30.167c0.082-4.813,3.523-8.929,8.233-9.851c4.833-0.963,9.482,1.536,11.387,5.939 c6.636,15.258,24.535,22.528,39.854,16.159c15.34-6.369,22.856-24.125,16.773-39.608c-1.782-4.485-0.184-9.585,3.83-12.268 c4.014-2.662,9.339-2.171,12.8,1.147c11.981,11.53,31.232,11.448,43.028-0.348c11.735-11.735,11.878-31.027,0.348-42.988 c-3.359-3.482-3.85-8.806-1.167-12.8c2.662-4.014,7.844-5.571,12.268-3.85c15.626,6.144,33.116-1.188,39.608-16.773 c6.369-15.319-0.881-33.198-16.138-39.854c-4.403-1.925-6.881-6.656-5.939-11.387c0.942-4.731,5.038-8.151,9.851-8.233 c16.609-0.307,30.147-14.029,30.147-30.638s-13.517-30.351-30.167-30.638c-4.813-0.082-8.929-3.502-9.851-8.233 c-0.942-4.71,1.536-9.462,5.939-11.387c15.258-6.656,22.487-24.535,16.138-39.854c-6.431-15.585-23.88-22.979-39.608-16.794 c-4.444,1.761-9.605,0.164-12.268-3.85c-2.683-3.994-2.191-9.339,1.167-12.8c11.53-11.96,11.407-31.232-0.348-42.967 c-11.755-11.756-31.048-11.919-43.028-0.369c-3.461,3.379-8.786,3.83-12.8,1.147c-3.994-2.662-5.591-7.782-3.83-12.268 c6.083-15.483-1.434-33.239-16.773-39.588c-15.319-6.369-33.198,0.922-39.854,16.159c-1.905,4.424-6.513,7.004-11.387,5.96 c-4.69-0.963-8.131-5.059-8.212-9.871C286.351,34.017,272.609,20.48,256,20.48s-30.351,13.537-30.638,30.167 c-0.082,4.813-3.502,8.909-8.233,9.851c-4.731,1.004-9.462-1.536-11.387-5.939c-6.656-15.258-24.535-22.487-39.854-16.159 c-15.34,6.349-22.876,24.105-16.794,39.588c1.761,4.485,0.164,9.585-3.85,12.268c-4.014,2.662-9.318,2.212-12.78-1.147 c-11.981-11.551-31.252-11.407-42.988,0.369c-11.756,11.715-11.899,31.007-0.348,42.947c3.359,3.461,3.83,8.786,1.167,12.8 s-7.823,5.612-12.268,3.85c-15.708-6.144-33.157,1.188-39.608,16.794c-6.349,15.34,0.881,33.219,16.138,39.854 c4.424,1.946,6.881,6.676,5.939,11.407c-0.942,4.731-5.038,8.151-9.851,8.233C34.017,225.649,20.48,239.391,20.48,256 s13.537,30.331,30.167,30.638c4.813,0.082,8.909,3.523,9.851,8.233c0.942,4.71-1.516,9.462-5.939,11.387 c-15.237,6.656-22.487,24.535-16.138,39.854c6.328,15.319,24.084,22.917,39.608,16.773c4.485-1.741,9.585-0.143,12.268,3.85 c2.662,3.994,2.191,9.318-1.147,12.8c-11.551,11.96-11.407,31.232,0.348,42.988c11.735,11.755,31.027,11.919,42.988,0.348 c3.482-3.318,8.786-3.809,12.8-1.147c3.994,2.683,5.591,7.782,3.85,12.268c-6.083,15.483,1.434,33.239,16.773,39.608 c15.278,6.369,33.198-0.901,39.854-16.159C207.401,453.652,211.108,451.297,215.122,451.297z"></path></g><g style="enable-background:new ;"><g style="opacity:0.24;"><path d="M74.977,437.023c-16.486-16.486-19.497-41.841-7.926-61.809c3.953-6.799,13.763-6.799,17.715-0.02 c1.536,2.662,3.052,4.71,4.69,6.369c11.858,11.837,30.945,11.96,43.028,0.348c7.926-7.619,20.664,0.881,16.63,11.121 c-6.124,15.585,1.311,33.198,16.753,39.608c15.462,6.41,33.178-0.799,39.895-16.159c4.403-10.076,19.436-7.086,19.62,3.912 c0.287,16.773,13.885,30.167,30.638,30.167c16.732,0,30.331-13.414,30.638-30.167c0.205-10.998,15.237-13.988,19.62-3.891 c6.676,15.36,24.412,22.548,39.854,16.159c15.462-6.41,22.897-24.023,16.773-39.608c-4.035-10.24,8.724-18.76,16.63-11.121 c12.063,11.633,31.171,11.489,42.988-0.348c1.659-1.659,3.154-3.707,4.69-6.369c3.953-6.799,13.763-6.779,17.715,0.02 c11.571,19.948,8.561,45.302-7.926,61.809c-13.967,13.967-34.017,18.166-51.671,12.554c-1.577,18.452-13.128,35.389-31.375,42.947 s-38.4,3.748-52.552-8.192C292.905,500.797,275.763,512,256.02,512c-19.763,0-36.925-11.203-45.425-27.668 c-14.152,11.94-34.304,15.749-52.572,8.172c-18.248-7.557-29.778-24.494-31.355-42.947 C109.015,455.188,88.965,450.99,74.977,437.023z"></path></g><g style="opacity:0.24;"><path d="M422.892,338.596c-7.639-7.905,0.86-20.664,11.1-16.65c14.09,5.53,30.044-0.143,37.642-13.21 c3.953-6.799,13.763-6.779,17.715,0c7.987,13.763,9.339,30.372,3.174,45.199c-9.073,21.955-31.99,34.529-55.194,30.884 c-6.451-1.024-10.322-7.741-7.946-13.824C433.684,359.915,431.247,347.259,422.892,338.596z"></path></g><g style="opacity:0.24;"><path d="M78.008,321.946c10.24-4.014,18.739,8.724,11.1,16.65c-8.376,8.663-10.793,21.34-6.492,32.42 c2.376,6.083-1.495,12.82-7.946,13.824c-23.204,3.645-46.121-8.929-55.173-30.863c-6.185-14.868-4.833-31.457,3.154-45.22 c3.953-6.799,13.763-6.799,17.715,0C47.964,321.802,63.918,327.475,78.008,321.946z"></path></g></g><path d="M215.04,348.16c-2.703,0-5.325-1.085-7.25-2.99l-61.44-61.44c-3.994-3.994-3.994-10.486,0-14.479 c3.994-3.994,10.486-3.994,14.479,0l53.699,53.699l136.151-155.607c3.727-4.28,10.199-4.69,14.438-0.963 c4.26,3.727,4.69,10.199,0.963,14.459l-143.36,163.84c-1.864,2.13-4.547,3.4-7.373,3.502 C215.265,348.16,215.163,348.16,215.04,348.16z"></path></svg>